<mxfile host="app.diagrams.net" modified="2023-12-05T18:09:19.383Z" agent="Mozilla/5.0 (Windows NT 10.0; Win64; x64) AppleWebKit/537.36 (KHTML, like Gecko) Chrome/119.0.0.0 Safari/537.36" version="22.1.5" etag="tlE_MEPfe3J-ZNiL8LR7" type="github">
  <diagram name="PÃ¡gina-1" id="eifX3KYrWNNVQkQsc-yv">
    <mxGraphModel>
      <root>
        <mxCell id="0" />
        <mxCell id="1" parent="0" />
      </root>
    </mxGraphModel>
  </diagram>
</mxfile>
